<?xml version="1.0" encoding="utf-8"?>
<!-- Generator: Adobe Illustrator 22.1.0, SVG Export Plug-In . SVG Version: 6.00 Build 0)  -->
<svg version="1.1" id="Layer_1" xmlns="http://www.w3.org/2000/svg" xmlns:xlink="http://www.w3.org/1999/xlink" x="0px" y="0px"
	 viewBox="0 0 36.9 36.9" style="enable-background:new 0 0 36.9 36.9;" xml:space="preserve">
<style type="text/css">
	.st0{fill:#CE181E;}
</style>
<g>
	<path class="st0" d="M18.4,0C8.3,0,0,8.3,0,18.4s8.3,18.4,18.4,18.4c10.2,0,18.4-8.3,18.4-18.4S28.6,0,18.4,0z M18.4,36.1
		c-9.7,0-17.6-7.9-17.6-17.6S8.7,0.8,18.4,0.8c9.7,0,17.6,7.9,17.6,17.6S28.2,36.1,18.4,36.1z"/>
	<path class="st0" d="M24.3,7.3h-3.5c-2.9,0-5.3,2.7-5.3,6v1.3h-2.8c-0.2,0-0.4,0.2-0.4,0.4v4.4c0,0.2,0.2,0.4,0.4,0.4h2.8v9.5
		c0,0.2,0.2,0.4,0.4,0.4h4.1c0.2,0,0.4-0.2,0.4-0.4v-9.5h4c0.2,0,0.4-0.2,0.4-0.4V15c0-0.2-0.2-0.4-0.4-0.4h-4v-1.3
		c0-0.5,0.3-0.8,0.4-0.8h3.5c0.2,0,0.4-0.2,0.4-0.4V7.7C24.7,7.5,24.5,7.3,24.3,7.3z M23.9,11.7h-3.1c-0.6,0-1.2,0.6-1.2,1.6V15
		c0,0.2,0.2,0.4,0.4,0.4h4V19h-4c-0.2,0-0.4,0.2-0.4,0.4v9.5h-3.3v-9.5c0-0.2-0.2-0.4-0.4-0.4H13v-3.6h2.8c0.2,0,0.4-0.2,0.4-0.4
		v-1.7c0-2.8,2.1-5.2,4.5-5.2h3.1V11.7z"/>
</g>
</svg>
