<?xml version="1.0" encoding="utf-8"?>
<!-- Generator: Adobe Illustrator 22.1.0, SVG Export Plug-In . SVG Version: 6.00 Build 0)  -->
<svg version="1.1" id="Layer_1" xmlns="http://www.w3.org/2000/svg" xmlns:xlink="http://www.w3.org/1999/xlink" x="0px" y="0px"
	 viewBox="0 0 36.9 36.9" style="enable-background:new 0 0 36.9 36.9;" xml:space="preserve">
<style type="text/css">
	.st0{fill:#CE181E;}
</style>
<g>
	<path class="st0" d="M18.4,36.8c10.1,0,18.4-8.3,18.4-18.4S28.6,0,18.4,0C8.3,0,0,8.3,0,18.4S8.3,36.8,18.4,36.8z M18.4,0.8
		C28.2,0.8,36,8.7,36,18.4S28.2,36,18.4,36C8.7,36,0.8,28.2,0.8,18.4S8.7,0.8,18.4,0.8z"/>
	<path class="st0" d="M13.6,14.4H9.9c-0.2,0-0.4,0.2-0.4,0.4v11.8c0,0.2,0.2,0.4,0.4,0.4h3.6c0.2,0,0.4-0.2,0.4-0.4V14.8
		C14,14.6,13.8,14.4,13.6,14.4z M13.2,26.2h-2.8v-11h2.8V26.2z"/>
	<path class="st0" d="M15.9,27h3.5c0.2,0,0.4-0.2,0.4-0.4v-6.2c0-1,0.3-2.2,1.8-2.2c0.4,0,1.6,0,1.6,2.2v6.2c0,0.2,0.2,0.4,0.4,0.4
		h3.6c0.2,0,0.4-0.2,0.4-0.4v-7.5c0-3.2-1.8-5.1-4.7-5.1c-1.5,0-2.5,0.6-3.2,1.2v-0.5c0-0.2-0.2-0.4-0.4-0.4h-3.5
		c-0.2,0-0.4,0.2-0.4,0.4v11.8C15.5,26.8,15.7,27,15.9,27z M16.3,15.2H19v1.2c0,0.2,0.1,0.3,0.3,0.4c0.2,0,0.4,0,0.5-0.2
		c0,0,1-1.7,3.2-1.7c2.5,0,3.9,1.6,3.9,4.3v7.1H24v-5.8c0-2.6-1.5-3-2.4-3c-1.6,0-2.6,1.1-2.6,3v5.8h-2.7V15.2z"/>
	<path class="st0" d="M11.7,13.7c1.4,0,2.6-1.2,2.6-2.6s-1.1-2.6-2.6-2.6s-2.6,1.2-2.6,2.6C9.2,12.5,10.3,13.7,11.7,13.7z M11.7,9.3
		c1,0,1.8,0.8,1.8,1.8s-0.8,1.8-1.8,1.8S10,12.1,10,11.1S10.8,9.3,11.7,9.3z"/>
</g>
</svg>
