<?xml version="1.0" encoding="utf-8"?>
<!-- Generator: Adobe Illustrator 22.1.0, SVG Export Plug-In . SVG Version: 6.00 Build 0)  -->
<svg version="1.1" id="Layer_1" xmlns="http://www.w3.org/2000/svg" xmlns:xlink="http://www.w3.org/1999/xlink" x="0px" y="0px"
	 viewBox="0 0 36.9 36.9" style="enable-background:new 0 0 36.9 36.9;" xml:space="preserve">
<style type="text/css">
	.st0{fill:#B3B3B3;}
</style>
<g>
	<path class="st0" d="M18.4,36.8c10.1,0,18.4-8.3,18.4-18.4S28.6,0,18.4,0S0,8.3,0,18.4S8.3,36.8,18.4,36.8z M18.4,0.8
		C28.1,0.8,36,8.7,36,18.4S28.1,36,18.4,36S0.8,28.2,0.8,18.4S8.7,0.8,18.4,0.8z"/>
	<path class="st0" d="M9.3,24.4c1.8,1.1,3.8,1.7,5.9,1.7c3.9,0,6.4-1.8,7.8-3.2c2-2.1,3.2-5.1,3.1-7.9c0.7-0.5,1.3-1.2,1.8-1.9
		c0.1-0.1,0.1-0.3,0-0.5c-0.1-0.1-0.3-0.2-0.5-0.1c-0.2,0.1-0.4,0.2-0.6,0.2c0.3-0.4,0.5-0.8,0.6-1.2c0.1-0.2,0-0.3-0.1-0.4
		c-0.1-0.1-0.3-0.1-0.5,0c-0.6,0.4-1.3,0.6-2,0.8C24,11.1,23,10.7,22,10.7c-1.3,0-2.4,0.6-3.2,1.5c-0.7,0.8-1,1.9-0.9,3
		c-2.7-0.3-5.1-1.6-6.8-3.7c-0.1-0.1-0.2-0.2-0.3-0.1c-0.1,0-0.2,0.1-0.3,0.2C9.6,13,9.7,14.7,10.6,16c-0.1,0-0.1-0.1-0.2-0.1
		c-0.1-0.1-0.3-0.1-0.4,0c-0.1,0.1-0.2,0.2-0.2,0.3c0,1.3,0.6,2.6,1.7,3.3c-0.1,0-0.2,0.1-0.3,0.1c-0.1,0.1-0.1,0.3-0.1,0.4
		c0.4,1.3,1.5,2.3,2.8,2.7c-1.3,0.8-2.8,1.1-4.4,0.9c-0.2,0-0.4,0.1-0.4,0.3C9.1,24.1,9.1,24.3,9.3,24.4z M15.2,22.8
		c0.1-0.1,0.2-0.3,0.1-0.4c-0.1-0.2-0.2-0.3-0.4-0.3c-1.2,0-2.3-0.7-2.8-1.7c0.4,0,0.8,0,1.1-0.1c0.2,0,0.3-0.2,0.3-0.4
		c0-0.2-0.1-0.3-0.3-0.4c-1.3-0.3-2.4-1.3-2.6-2.6c0.4,0.1,0.8,0.2,1.2,0.2c0.2,0,0.3-0.1,0.4-0.3c0.1-0.2,0-0.4-0.2-0.5
		c-1.3-0.9-1.8-2.5-1.3-3.9c1.9,2.1,4.6,3.4,7.5,3.5c0.1,0,0.2,0,0.3-0.1c0.1-0.1,0.1-0.2,0.1-0.3c-0.2-1,0-2,0.6-2.8
		c0.6-0.8,1.6-1.2,2.6-1.2c0.9,0,1.8,0.4,2.4,1c0.1,0.1,0.2,0.1,0.4,0.1c0.5-0.1,0.9-0.2,1.4-0.4c-0.2,0.3-0.6,0.6-0.9,0.8
		c-0.2,0.1-0.2,0.3-0.2,0.5c0.1,0.2,0.2,0.3,0.4,0.3c0.3,0,0.6-0.1,0.9-0.2c-0.3,0.3-0.6,0.5-0.9,0.8c-0.1,0.1-0.2,0.2-0.2,0.3
		c0.1,2.7-0.9,5.6-2.9,7.6c-1.3,1.4-3.6,3-7.2,3c-1.4,0-2.8-0.3-4-0.8C12.6,24.3,14,23.7,15.2,22.8z"/>
</g>
</svg>
