<?xml version="1.0" encoding="utf-8"?>
<!-- Generator: Adobe Illustrator 22.1.0, SVG Export Plug-In . SVG Version: 6.00 Build 0)  -->
<svg version="1.1" id="Layer_1" xmlns="http://www.w3.org/2000/svg" xmlns:xlink="http://www.w3.org/1999/xlink" x="0px" y="0px"
	 viewBox="0 0 36.9 36.9" style="enable-background:new 0 0 36.9 36.9;" xml:space="preserve">
<style type="text/css">
	.st0{fill:#B3B3B3;}
</style>
<g>
	<path class="st0" d="M18.4,0C8.3,0,0,8.3,0,18.4s8.3,18.4,18.4,18.4s18.4-8.3,18.4-18.4C36.8,8.3,28.6,0,18.4,0z M18.4,36
		C8.7,36,0.8,28.2,0.8,18.4c0-9.7,7.9-17.6,17.6-17.6S36,8.7,36,18.4C36,28.2,28.2,36,18.4,36z"/>
	<path class="st0" d="M27.5,11.8c-0.5-0.4-1.2-0.5-2.2-0.5c-1.5-0.1-4-0.2-6.7-0.2c-2.7,0-5.2,0.1-6.7,0.2c-1,0.1-1.7,0.2-2.2,0.5
		c-0.3,0.2-0.7,0.7-0.9,2.3c-0.2,2-0.2,6.7,0,8.7c0.2,1.5,0.6,2,0.9,2.3c0.5,0.4,1.2,0.5,2.2,0.5c1.5,0.1,4,0.2,6.7,0.2
		s5.2-0.1,6.7-0.2c1-0.1,1.7-0.2,2.2-0.5c0.3-0.3,0.7-0.7,0.9-2.3c0.2-2,0.2-6.7,0-8.7C28.2,12.5,27.8,12.1,27.5,11.8z M27.5,22.7
		c-0.1,0.9-0.3,1.5-0.6,1.7c-0.3,0.2-1.1,0.3-1.8,0.4c-1.5,0.1-4,0.2-6.7,0.2c-2.7,0-5.2-0.1-6.7-0.2c-0.7,0-1.5-0.1-1.8-0.4
		c-0.3-0.2-0.5-0.8-0.6-1.7c-0.2-2-0.2-6.5,0-8.5c0.1-0.9,0.3-1.5,0.6-1.7c0.3-0.2,1.1-0.3,1.8-0.4c1.5-0.1,4-0.2,6.7-0.2
		c2.7,0,5.2,0.1,6.7,0.2c0.7,0,1.5,0.1,1.8,0.4c0.3,0.2,0.5,0.8,0.6,1.7C27.8,16.2,27.8,20.7,27.5,22.7z"/>
	<path class="st0" d="M22.2,18.1l-5.8-3c-0.1-0.1-0.3-0.1-0.4,0c-0.1,0.1-0.2,0.2-0.2,0.3v6c0,0.1,0.1,0.3,0.2,0.3
		c0.1,0,0.1,0.1,0.2,0.1c0.1,0,0.1,0,0.2,0l5.8-3c0.1-0.1,0.2-0.2,0.2-0.4C22.4,18.3,22.3,18.2,22.2,18.1z M16.6,20.8v-4.7l4.5,2.4
		L16.6,20.8z"/>
</g>
</svg>
