<svg id="Layer_1" data-name="Layer 1" xmlns="http://www.w3.org/2000/svg" viewBox="0 0 146.13 137"><defs><style>.cls-1{fill:#fff;}</style></defs><title>compare</title><g id="sort"><path class="cls-1" d="M36.82,141.85a5.6,5.6,0,0,0,0-7.94l-15.7-15.7H134A5.62,5.62,0,0,0,134,107H21.12l15.7-15.7a5.62,5.62,0,1,0-7.95-8L3.58,108.61a5.61,5.61,0,0,0,0,8l25.29,25.29A5.61,5.61,0,0,0,36.82,141.85Z" transform="translate(-1.93 -6.5)"/><path class="cls-1" d="M121.13,66.68l25.29-25.29a5.26,5.26,0,0,0,.7-.86,4.77,4.77,0,0,0,.24-.44,4.44,4.44,0,0,0,.28-.53,5.4,5.4,0,0,0,.18-.57c0-.16.11-.31.14-.47a5.87,5.87,0,0,0,0-2.21c0-.16-.1-.31-.14-.47s-.1-.39-.18-.58-.18-.35-.28-.53a4.63,4.63,0,0,0-.24-.43,5.26,5.26,0,0,0-.7-.86L121.13,8.15a5.62,5.62,0,1,0-7.95,7.94l15.7,15.7H16A5.62,5.62,0,0,0,16,43H128.88l-15.7,15.7a5.62,5.62,0,0,0,7.95,8Z" transform="translate(-1.93 -6.5)"/></g></svg>