<?xml version="1.0" encoding="utf-8"?>
<!-- Generator: Adobe Illustrator 25.2.3, SVG Export Plug-In . SVG Version: 6.00 Build 0)  -->
<svg version="1.1" id="Layer_1" xmlns="http://www.w3.org/2000/svg" xmlns:xlink="http://www.w3.org/1999/xlink" x="0px" y="0px"
	 viewBox="0 0 29 21.4" style="enable-background:new 0 0 29 21.4;" xml:space="preserve">
<style type="text/css">
	.st0{fill:#CE181E;}
</style>
<path class="st0" d="M1.3,0L1.3,0z"/>
<g>
	<path class="st0" d="M0,0l10.7,10.7L0,21.4c2.2,0,4.4,0,6.7,0l10.7-10.7L6.7,0.1c-1.8,0-3.6,0-5.4,0l0,0C1.4,0,0.8,0,0,0z"/>
	<path class="st0" d="M11.7,0.1l10.7,10.7L11.6,21.4c1.4,0,2.9,0,4.3,0c-0.3,0,1.1,0,2.3,0L29,10.7L18.3,0
		C16.1,0.1,13.9,0.1,11.7,0.1z"/>
</g>
</svg>
