<?xml version="1.0" encoding="UTF-8" standalone="no"?>
<svg
   id="Layer_1"
   data-name="Layer 1"
   viewBox="0 0 28.310298 34.600078"
   version="1.1"
   width="28.310299"
   height="34.600079"
   xmlns="http://www.w3.org/2000/svg"
   xmlns:svg="http://www.w3.org/2000/svg"
   xmlns:rdf="http://www.w3.org/1999/02/22-rdf-syntax-ns#"
   xmlns:cc="http://creativecommons.org/ns#"
   xmlns:dc="http://purl.org/dc/elements/1.1/">
  <defs
     id="defs4">
    <style
       id="style2">.cls-1{fill:#fff;}</style>
  </defs>
  <title
     id="title6">header-icon</title>
  <path
     class="cls-1"
     d="M 18.43,17.2 A 5.67,5.67 0 0 0 16.9,17 c -1.49,0 -3.81,0 -5.28,0 a 5.85,5.85 0 0 0 -1.5,0.17 C 6.33,18.18 0,20.34 0,23.71 v 8.34 a 2.59,2.59 0 0 0 2.61,2.55 h 23.1 a 2.59,2.59 0 0 0 2.6,-2.55 v -8.33 c 0.05,-3.37 -6.17,-5.53 -9.88,-6.52 z m 8.21,14.66 c -0.13,0.86 -0.34,1 -1,1.06 H 2.74 C 2.03,32.84 1.82,32.72 1.69,31.86 V 23.7 c 0,-1.53 3.55,-3.49 8.85,-4.87 a 3.65,3.65 0 0 1 1,-0.12 c 1.49,0 3.85,0 5.36,0 a 3.4,3.4 0 0 1 1,0.13 c 5.19,1.37 8.66,3.33 8.65,4.87 z"
     id="path8"
     style="fill:#000000" />
  <path
     class="cls-1"
     d="m 14.17,16 a 8,8 0 1 0 -8,-8 8,8 0 0 0 8,8 z m 0,-14.29 A 6.3,6.3 0 1 1 7.86,8 6.31,6.31 0 0 1 14.17,1.69 Z"
     id="path10"
     style="fill:#000000" />
  <metadata
     id="metadata887">
    <rdf:RDF>
      <cc:Work
         rdf:about="">
        <dc:title>header-icon</dc:title>
      </cc:Work>
    </rdf:RDF>
  </metadata>
</svg>
