<svg id="Layer_1" data-name="Layer 1" xmlns="http://www.w3.org/2000/svg" viewBox="0 0 47.07 46.66"><defs><style>.cls-1{fill:none;stroke:#fff;stroke-miterlimit:10;stroke-width:1.72px;}</style></defs><title>header-icon</title><path class="cls-1" d="M41.62,20H5.45L8.27,36.23a4.3,4.3,0,0,0,4.24,3.56H34.56a4.3,4.3,0,0,0,4.24-3.56Z"/><line class="cls-1" x1="13.22" y1="17.4" x2="18.39" y2="5.34"/><line class="cls-1" x1="33.9" y1="17.4" x2="28.73" y2="5.34"/><path class="cls-1" d="M35.62,14.81h6.43A2.16,2.16,0,0,1,44.21,17v.86A2.16,2.16,0,0,1,42.05,20H5a2.15,2.15,0,0,1-2.15-2.15V17A2.16,2.16,0,0,1,5,14.81H11.5"/><line class="cls-1" x1="33.06" y1="14.81" x2="14.11" y2="14.81"/></svg>