<svg id="Layer_1" data-name="Layer 1" xmlns="http://www.w3.org/2000/svg" viewBox="0 0 46.33 46.61"><defs><style>.cls-1{fill:#fff;}</style></defs><title>header-icon</title><path class="cls-1" d="M27.43,23.2A5.67,5.67,0,0,0,25.9,23c-1.49,0-3.81,0-5.28,0a5.85,5.85,0,0,0-1.5.17C15.33,24.18,9,26.34,9,29.71v8.34a2.59,2.59,0,0,0,2.61,2.55h23.1a2.59,2.59,0,0,0,2.6-2.55V29.72C37.36,26.35,31.14,24.19,27.43,23.2Zm8.21,14.66c-.13.86-.34,1-1,1.06H11.74c-.71-.08-.92-.2-1.05-1.06V29.7c0-1.53,3.55-3.49,8.85-4.87a3.65,3.65,0,0,1,1-.12c1.49,0,3.85,0,5.36,0a3.4,3.4,0,0,1,1,.13c5.19,1.37,8.66,3.33,8.65,4.87Z"/><path class="cls-1" d="M23.17,22a8,8,0,1,0-8-8A8,8,0,0,0,23.17,22Zm0-14.29A6.3,6.3,0,1,1,16.86,14,6.31,6.31,0,0,1,23.17,7.69Z"/></svg>