<?xml version="1.0" encoding="utf-8"?>
<!-- Generator: Adobe Illustrator 22.1.0, SVG Export Plug-In . SVG Version: 6.00 Build 0)  -->
<svg version="1.1" id="Layer_1" xmlns="http://www.w3.org/2000/svg" xmlns:xlink="http://www.w3.org/1999/xlink" x="0px" y="0px"
	 viewBox="0 0 12 21" style="enable-background:new 0 0 12 21;" xml:space="preserve">
<style type="text/css">
	.st0{fill:#FFFFFF;}
</style>
<path class="st0" d="M10.1,0H1.9C0.9,0,0,0.9,0,1.9v17.2C0,20.1,0.9,21,1.9,21h8.1c1.1,0,1.9-0.9,1.9-1.9V1.9C12,0.9,11.1,0,10.1,0z
	 M4.2,1.2c0-0.1,0-0.1,0.1-0.1h3.5c0.1,0,0.1,0,0.1,0.1v0c0,0.1,0,0.1-0.1,0.1H4.3C4.2,1.3,4.2,1.2,4.2,1.2L4.2,1.2z M6,20.3
	c-0.5,0-1-0.4-1-1c0-0.5,0.4-1,1-1c0.5,0,1,0.4,1,1C7,19.9,6.5,20.3,6,20.3z M10.9,17.5c0,0.2-0.1,0.3-0.3,0.3H1.4
	c-0.2,0-0.3-0.1-0.3-0.3V2.4c0-0.2,0.1-0.3,0.3-0.3h9.2c0.2,0,0.3,0.1,0.3,0.3V17.5z"/>
</svg>
