<?xml version="1.0" encoding="UTF-8" standalone="no"?>
<!-- Generator: Adobe Illustrator 22.1.0, SVG Export Plug-In . SVG Version: 6.00 Build 0)  -->

<svg
   version="1.1"
   id="Layer_1"
   x="0px"
   y="0px"
   viewBox="0 0 90 90"
   style="enable-background:new 0 0 90 90;"
   xml:space="preserve"
   xmlns="http://www.w3.org/2000/svg"
   xmlns:svg="http://www.w3.org/2000/svg"><defs
   id="defs9" />
<style
   type="text/css"
   id="style2">
	.st0{fill:#FFFFFF;}
</style>
<path
   class="st0"
   d="m 86.657143,82.6 -20.4,-19.4 c 5.9,-6.4 9.7,-15.6 9.7,-25.2 0,-20.4 -16.6,-37 -37,-37 -20.4,0 -37.1000001,16.6 -37.1000001,37 0,20.4 16.6000001,37 37.0000001,37 8,0 15,-2.7 21.5,-7 l 20.9,19.9 c 0.6,0.6 1.6,1.1 2.7,1.1 1.1,0 2.1,-0.5 2.7,-1.1 1.6,-1.6 1.6,-3.7 0,-5.3 z M 8.8571429,38 c 0,-16.6 13.4000001,-30 30.0000001,-30 16.6,0 30,13.4 30,30 0,16.6 -13.4,30 -30,30 -16.6,0 -30.0000001,-13.3 -30.0000001,-30 z"
   id="path4"
   style="fill:#000000" />
</svg>
