<?xml version="1.0" encoding="utf-8"?>
<!-- Generator: Adobe Illustrator 22.1.0, SVG Export Plug-In . SVG Version: 6.00 Build 0)  -->
<svg version="1.1" id="Layer_1" xmlns="http://www.w3.org/2000/svg" xmlns:xlink="http://www.w3.org/1999/xlink" x="0px" y="0px"
	 viewBox="0 0 90 90" style="enable-background:new 0 0 90 90;" xml:space="preserve">
<style type="text/css">
	.st0{fill:#FFFFFF;}
</style>
<path class="st0" d="M86.8,82.6L66.4,63.2c5.9-6.4,9.7-15.6,9.7-25.2c0-20.4-16.6-37-37-37S2,17.6,2,38s16.6,37,37,37
	c8,0,15-2.7,21.5-7l20.9,19.9C82,88.5,83,89,84.1,89s2.1-0.5,2.7-1.1C88.4,86.3,88.4,84.2,86.8,82.6z M9,38C9,21.4,22.4,8,39,8
	s30,13.4,30,30s-13.4,30-30,30S9,54.7,9,38z"/>
</svg>
